<svg id="Capa_1" enable-background="new 0 0 512 512" height="512" viewBox="0 0 512 512" width="512" xmlns="http://www.w3.org/2000/svg" xmlns:xlink="http://www.w3.org/1999/xlink"><linearGradient id="SVGID_1_" gradientUnits="userSpaceOnUse" x1="0" x2="512" y1="256" y2="256"><stop offset="0" stop-color="#ffd9d9" stop-opacity="0"/><stop offset=".9981" stop-color="#ffb3b3"/></linearGradient><g><g><path d="m20.337 133.512c-23.967 39.398-26.493 107.613-8.937 150.256 15.377 37.351 45.966 72.409 86.12 76.801 14.766 1.615 29.858-1.024 44.472 1.638 50.257 9.152 68.952 71.09 108.01 104.014 27.182 22.913 64.898 31.021 100.174 26.607s68.302-20.363 97.376-40.824c22.957-16.157 44.436-36.022 55.764-61.707 23.744-53.839-4.19-118.501-47.587-158.239-13.516-12.377-28.581-23.294-39.875-37.727s-18.48-33.695-13.099-51.214c4.293-13.977 15.849-24.812 20.227-38.763 5.958-18.984-3.035-40.281-17.802-53.616s-34.308-20.039-53.666-24.64c-81.103-19.28-258.823-11.524-331.177 107.414z" fill="url(#SVGID_1_)"/></g><g><g fill="#2626bc" opacity=".1"><g><path d="m248.432 124.586h18.583c2.761 0 5-2.238 5-5s-2.239-5-5-5h-18.583c-2.761 0-5 2.238-5 5s2.238 5 5 5z"/><path d="m248.432 142.968h58.583c2.761 0 5-2.238 5-5s-2.239-5-5-5h-58.583c-2.761 0-5 2.238-5 5s2.238 5 5 5z"/><path d="m248.432 161.35h58.583c2.761 0 5-2.238 5-5s-2.239-5-5-5h-58.583c-2.761 0-5 2.238-5 5s2.238 5 5 5z"/></g><path d="m454.281 292.818h-49.064c19.491-11.078 32.647-32.013 32.647-56.035 0-35.582-28.844-64.426-64.426-64.426s-64.426 28.844-64.426 64.426c0 24.021 13.156 44.957 32.647 56.035h-.838c-5.523 0-10 4.477-10 10v63.83c0 5.523 4.477 10 10 10h22.76v50.745c0 15.36-12.72 27.8-28.17 27.34-14.88-.45-26.52-13.04-26.52-27.92v-59.31c0-27.78-22.87-50.32-50.77-49.79-27.26.51-48.84 23.35-48.84 50.63v62.61c0 12.98-10.45 23.57-23.38 23.79-13.3.22-24.19-11.02-24.19-24.33v-99.28c0-11.96 7.02-22.91 17.89-27.9l22.81-10.48c16.33-7.5 26.87-23.95 26.87-41.91v-69.96c0-2.759-2.239-4.998-4.997-5v-75.492c0-10.839-6.847-20.605-17.037-24.302l-11.557-4.19c-1.678-5.69-6.941-9.858-13.167-9.858h-3.755c-.116-2.658-2.291-4.782-4.978-4.782-2.761 0-5 2.238-5 5v4.782 17.466 4.782c0 2.762 2.239 5 5 5 2.687 0 4.862-2.124 4.978-4.782h3.755c5.265 0 9.841-2.981 12.145-7.342l9.169 3.325c6.249 2.267 10.447 8.255 10.447 14.901v75.492h-.003c-2.76 0-5 2.24-5 5v69.96c0 10.17-5.97 19.49-15.21 23.73l-22.82 10.49c-7.892 3.623-14.553 9.149-19.542 15.882-4.989-6.734-11.65-12.263-19.54-15.887l-22.817-10.48c-9.274-4.26-15.217-13.53-15.217-23.735v-69.964c0-2.761-2.239-5-5-5v-75.489c0-6.646 4.198-12.635 10.446-14.901l9.01-3.267c2.314 4.329 6.875 7.284 12.117 7.284h3.755c.116 2.658 2.291 4.782 4.978 4.782 2.761 0 5-2.238 5-5v-4.782-17.466-4.782c0-2.762-2.239-5-5-5-2.687 0-4.862 2.124-4.978 4.782h-3.755c-6.253 0-11.533 4.206-13.186 9.934l-11.351 4.115c-10.19 3.696-17.037 13.463-17.037 24.302v75.489c-2.761 0-5 2.239-5 5v69.964c0 18.019 10.494 34.388 26.869 41.909l22.817 10.48c10.867 4.992 17.889 15.944 17.889 27.902v15.575c0 .01.002.02.002.03v84.213c0 23.89 19.23 43.37 43.03 43.78 24.49.42 44.54-20.05 44.54-44.55v-62.68c0-16.73 13.86-30.29 30.71-29.79 16.21.48 28.9 14.21 28.9 30.42v59.26c0 26.41 21.74 47.84 48.26 47.34 25.92-.49 46.43-22.2 46.43-48.13v-49.955h70.699c5.523 0 10-4.477 10-10v-63.83c.001-5.522-4.476-10-9.999-10z"/></g><g><path d="m454.281 351.648h-113.459c-5.523 0-10-4.477-10-10v-63.83c0-5.523 4.477-10 10-10h113.459c5.523 0 10 4.477 10 10v63.83c0 5.523-4.477 10-10 10z" fill="#ff4d4d"/><path d="m423.1 267.82c-11.82 14.29-29.67 23.39-49.66 23.39-16.19 0-30.99-5.97-42.31-15.84 1.09-4.34 5.01-7.55 9.69-7.55z" fill="#ff2c2c"/><g><g><path d="m435.104 294.789h-18.583c-2.762 0-5-2.239-5-5s2.238-5 5-5h18.583c2.762 0 5 2.239 5 5s-2.238 5-5 5z" fill="#fff"/></g><g><path d="m435.104 313.171h-58.583c-2.762 0-5-2.239-5-5s2.238-5 5-5h58.583c2.762 0 5 2.239 5 5s-2.238 5-5 5z" fill="#fff"/></g><g><path d="m435.104 331.552h-58.583c-2.762 0-5-2.239-5-5s2.238-5 5-5h58.583c2.762 0 5 2.239 5 5s-2.238 5-5 5z" fill="#fff"/></g></g></g><g><g fill="#b3b3ff"><path d="m129.443 59.506h-8.733c-4.823 0-8.733-3.91-8.733-8.733 0-4.823 3.91-8.733 8.733-8.733h8.733z"/><path d="m173.79 59.506h8.733c4.823 0 8.733-3.91 8.733-8.733 0-4.823-3.91-8.733-8.733-8.733h-8.733z"/></g><g><path d="m94.136 155.88v69.964c0 10.205 5.943 19.475 15.217 23.735l22.817 10.48c17.945 8.243 29.541 26.329 29.541 46.076v15.233c0 5.326-4.019 9.977-9.335 10.321-5.824.377-10.665-4.236-10.665-9.978v-15.575c0-11.958-7.021-22.91-17.889-27.902l-22.817-10.48c-16.374-7.521-26.869-23.89-26.869-41.908v-69.966c0-2.761 2.239-5 5-5h10c2.761 0 5 2.238 5 5z" fill="#ff8b00"/></g><g><path d="m383.582 234.313v167.29c0 25.93-20.51 47.64-46.43 48.13-26.52.5-48.26-20.93-48.26-47.34v-59.26c0-16.21-12.69-29.94-28.9-30.42-16.85-.5-30.71 13.06-30.71 29.79v62.68c0 24.5-20.05 44.97-44.54 44.55-23.8-.41-43.03-19.89-43.03-43.78v-99.82c0-19.75 11.59-37.83 29.54-46.07l22.82-10.49c9.24-4.24 15.21-13.56 15.21-23.73v-69.96c0-2.76 2.24-5 5-5h10c2.76 0 5 2.24 5 5v69.96c0 17.96-10.54 34.41-26.87 41.91l-22.81 10.48c-10.87 4.99-17.89 15.94-17.89 27.9v99.28c0 13.31 10.89 24.55 24.19 24.33 12.93-.22 23.38-10.81 23.38-23.79v-62.61c0-27.28 21.58-50.12 48.84-50.63 27.9-.53 50.77 22.01 50.77 49.79v59.31c0 14.88 11.64 27.47 26.52 27.92 15.45.46 28.17-11.98 28.17-27.34v-167.74c0-5.33 4.02-9.98 9.33-10.32 5.83-.38 10.67 4.23 10.67 9.98z" fill="#ff9d33"/></g><path d="m383.582 234.313v56.25c-3.32.43-6.7.65-10.14.65-3.34 0-6.63-.21-9.86-.61v-55.95c0-5.33 4.02-9.98 9.33-10.32 5.83-.38 10.67 4.23 10.67 9.98z" fill="#ff8b00"/><g><circle cx="373.438" cy="211.783" fill="#ebebff" r="64.426"/><circle cx="373.438" cy="211.783" fill="#d9d9ff" r="31.239"/><circle cx="373.438" cy="211.783" fill="#b3b3ff" r="23.696"/></g></g><g fill="#00c"><path d="m454.281 262.818h-33.837c13.773-12.695 22.42-30.872 22.42-51.035 0-38.281-31.144-69.426-69.426-69.426s-69.426 31.145-69.426 69.426c0 22.264 10.546 42.099 26.892 54.812-3.109 2.75-5.082 6.756-5.082 11.223v63.83c0 8.271 6.729 15 15 15h17.757v45.75c0 6.082-2.412 11.773-6.792 16.025-4.377 4.249-10.157 6.481-16.23 6.308-11.946-.354-21.664-10.634-21.664-22.915v-59.313c0-14.814-5.839-28.702-16.44-39.104-10.598-10.398-24.588-15.984-39.42-15.689-29.636.563-53.747 25.518-53.747 55.629v62.616c0 10.186-8.283 18.611-18.464 18.784-4.887.095-9.612-1.831-13.23-5.389-3.737-3.674-5.88-8.754-5.88-13.937v-99.279c0-10.011 5.878-19.18 14.975-23.358l22.819-10.48c18.091-8.312 29.78-26.545 29.78-46.452v-69.965c0-5.514-4.486-10-10-10v-70.488c0-10.839-6.847-20.605-17.037-24.302l-11.557-4.19c-1.678-5.69-6.941-9.858-13.167-9.858h-3.755c-.116-2.658-2.291-4.782-4.978-4.782-2.761 0-5 2.238-5 5v4.782 17.466 4.782c0 2.762 2.239 5 5 5 2.687 0 4.862-2.124 4.978-4.782h3.755c5.265 0 9.841-2.981 12.145-7.342l9.169 3.325c6.249 2.267 10.447 8.255 10.447 14.901v70.488c-5.514 0-10 4.486-10 10v17.951c0 2.762 2.239 5 5 5s5-2.238 5-5v-17.951h10v69.965c0 16.013-9.403 30.68-23.955 37.364l-22.819 10.48c-12.636 5.806-20.8 18.541-20.8 32.446v99.279c0 7.847 3.232 15.525 8.869 21.067 5.545 5.452 12.813 8.39 20.411 8.256 15.602-.264 28.295-13.176 28.295-28.782v-62.616c0-24.701 19.709-45.171 43.936-45.631 12.118-.263 23.561 4.326 32.227 12.829 8.67 8.507 13.444 19.859 13.444 31.967v59.313c0 17.634 14.071 32.397 31.367 32.911.331.01.66.015.989.015 8.449 0 16.408-3.226 22.503-9.144 6.337-6.151 9.827-14.391 9.827-23.2v-121.378c1.607.112 3.224.189 4.859.189 1.731 0 3.441-.085 5.141-.21v120.606c0 23.347-18.627 42.695-41.523 43.13-11.454.192-22.268-4.089-30.458-12.125-8.194-8.04-12.706-18.769-12.706-30.211v-59.261c0-18.979-15.142-34.87-33.754-35.423-9.48-.284-18.463 3.207-25.279 9.822-6.819 6.62-10.575 15.487-10.575 24.967v62.674c0 10.592-4.364 20.957-11.973 28.437-7.474 7.348-17.223 11.305-27.49 11.122-21.015-.36-38.112-17.757-38.112-38.781v-84.246-15.575c0-17.801 10.452-34.104 26.626-41.532l22.819-10.48c11.013-5.06 18.128-16.159 18.128-28.278v-22.913c0-2.762-2.239-5-5-5s-5 2.238-5 5v22.913c0 8.225-4.829 15.758-12.303 19.19l-22.819 10.48c-6.707 3.081-12.603 7.415-17.468 12.645-4.94-5.296-10.878-9.632-17.438-12.645l-22.817-10.48c-7.474-3.433-12.304-10.966-12.304-19.19v-69.965c0-5.514-4.486-10-10-10v-70.489c0-6.646 4.198-12.635 10.446-14.901l9.01-3.267c2.314 4.329 6.875 7.284 12.117 7.284h3.755c.116 2.658 2.291 4.782 4.978 4.782 2.761 0 5-2.238 5-5v-4.782-17.467-4.782c0-2.762-2.239-5-5-5-2.687 0-4.862 2.124-4.978 4.782h-3.755c-6.253 0-11.533 4.206-13.186 9.934l-11.351 4.115c-10.19 3.696-17.037 13.463-17.037 24.302v70.489c-5.514 0-10 4.486-10 10v69.964c0 19.908 11.69 38.142 29.782 46.452l22.817 10.48c9.098 4.179 14.976 13.348 14.976 23.358v15.575 84.245c0 26.444 21.506 48.327 47.941 48.779 12.926.222 25.269-4.746 34.671-13.988 9.509-9.348 14.962-22.312 14.962-35.568v-62.674c0-6.753 2.678-13.071 7.54-17.791 4.858-4.717 11.262-7.202 18.017-7.002 13.262.394 24.051 11.8 24.051 25.427v59.261c0 14.149 5.577 27.413 15.702 37.349 9.879 9.693 22.852 14.995 36.63 14.995.339 0 .68-.003 1.021-.01 28.306-.537 51.334-24.37 51.334-53.128v-122.078c6.347-1.418 12.375-3.689 17.94-6.717.032 0 .063.01.095.01h47.667c2.757 0 5 2.243 5 5v63.83c0 2.757-2.243 5-5 5h-41.599c-2.761 0-5 2.238-5 5s2.239 5 5 5h41.599c8.271 0 15-6.729 15-15v-63.83c.002-8.272-6.727-15.001-14.998-15.001zm-271.758-208.312h-3.733v-7.466h3.733c2.058 0 3.733 1.675 3.733 3.733s-1.674 3.733-3.733 3.733zm-61.814-7.466h3.733v7.466h-3.733c-2.058 0-3.733-1.675-3.733-3.732.001-2.059 1.675-3.734 3.733-3.734zm5.2 226.648-22.817-10.48c-14.552-6.685-23.956-21.351-23.956-37.364v-69.964h10v69.964c0 12.119 7.116 23.219 18.13 28.278l22.817 10.48c5.871 2.696 11.149 6.673 15.404 11.575-1.987 3.113-3.662 6.424-5.003 9.88-3.59-5.272-8.569-9.609-14.575-12.369zm232.67 72.96h-17.757c-2.757 0-5-2.243-5-5v-63.83c0-2.629 2.047-4.767 4.627-4.962 5.622 3.049 11.714 5.33 18.13 6.735zm-44.566-134.865c0-32.768 26.658-59.426 59.426-59.426s59.426 26.658 59.426 59.426-26.658 59.426-59.426 59.426-59.426-26.658-59.426-59.426z"/><path d="m248.432 99.586h18.583c2.761 0 5-2.238 5-5s-2.239-5-5-5h-18.583c-2.761 0-5 2.238-5 5s2.238 5 5 5z"/><path d="m248.432 117.968h58.583c2.761 0 5-2.238 5-5s-2.239-5-5-5h-58.583c-2.761 0-5 2.238-5 5s2.238 5 5 5z"/><path d="m248.432 136.35h58.583c2.761 0 5-2.238 5-5s-2.239-5-5-5h-58.583c-2.761 0-5 2.238-5 5s2.238 5 5 5z"/></g><path d="m383.582 121.156c-2.761 0-5-2.238-5-5 0-3.492-2.841-6.333-6.333-6.333-2.761 0-5-2.238-5-5s2.239-5 5-5c3.492 0 6.333-2.841 6.333-6.333 0-2.762 2.239-5 5-5s5 2.238 5 5c0 3.492 2.841 6.333 6.333 6.333 2.761 0 5 2.238 5 5s-2.239 5-5 5c-3.492 0-6.333 2.841-6.333 6.333 0 2.762-2.239 5-5 5z" fill="#6c6cff"/><path d="m93.604 379.314c-2.761 0-5-2.238-5-5 0-3.492-2.841-6.333-6.333-6.333-2.761 0-5-2.238-5-5s2.239-5 5-5c3.492 0 6.333-2.841 6.333-6.333 0-2.762 2.239-5 5-5s5 2.238 5 5c0 3.492 2.841 6.333 6.333 6.333 2.761 0 5 2.238 5 5s-2.239 5-5 5c-3.492 0-6.333 2.841-6.333 6.333 0 2.762-2.239 5-5 5z" fill="#ff9d33"/><g fill="#ff4d4d"><path d="m421.521 98.19c-2.761 0-5-2.238-5-5 0-3.492-2.841-6.333-6.333-6.333-2.761 0-5-2.238-5-5s2.239-5 5-5c3.492 0 6.333-2.842 6.333-6.334 0-2.762 2.239-5 5-5s5 2.238 5 5c0 3.492 2.841 6.334 6.333 6.334 2.761 0 5 2.238 5 5s-2.239 5-5 5c-3.492 0-6.333 2.841-6.333 6.333 0 2.762-2.238 5-5 5z"/><g><g><path d="m448.667 129.15c-2.761 0-5-2.238-5-5v-.149c0-2.762 2.239-5 5-5s5 2.238 5 5v.149c0 2.762-2.239 5-5 5z"/><path d="m448.667 156.935c-2.761 0-5-2.238-5-5v-.149c0-2.762 2.239-5 5-5s5 2.238 5 5v.149c0 2.761-2.239 5-5 5z"/></g><g><path d="m436.696 136.061c-.85 0-1.711-.217-2.5-.674l-.13-.075c-2.39-1.384-3.206-4.442-1.822-6.832s4.441-3.207 6.833-1.822l.13.075c2.39 1.384 3.206 4.442 1.822 6.832-.928 1.601-2.607 2.496-4.333 2.496z"/><path d="m460.758 149.952c-.85 0-1.711-.217-2.5-.674l-.13-.075c-2.39-1.384-3.206-4.442-1.822-6.832 1.383-2.39 4.441-3.207 6.833-1.822l.13.075c2.39 1.384 3.206 4.442 1.822 6.832-.928 1.602-2.607 2.496-4.333 2.496z"/></g><g><path d="m436.576 149.952c-1.726 0-3.405-.895-4.332-2.496-1.384-2.39-.568-5.448 1.822-6.832l.13-.075c2.391-1.385 5.449-.567 6.833 1.822 1.384 2.39.568 5.448-1.822 6.832l-.13.075c-.79.457-1.651.674-2.501.674z"/><path d="m460.638 136.061c-1.726 0-3.405-.895-4.332-2.496-1.384-2.39-.568-5.448 1.822-6.832l.13-.075c2.392-1.385 5.45-.567 6.833 1.822 1.384 2.39.568 5.448-1.822 6.832l-.13.075c-.79.457-1.651.674-2.501.674z"/></g></g><g><g><path d="m161.71 122.167c-2.761 0-5-2.238-5-5v-.15c0-2.762 2.239-5 5-5s5 2.238 5 5v.15c0 2.762-2.238 5-5 5z"/><path d="m161.71 149.951c-2.761 0-5-2.238-5-5v-.15c0-2.762 2.239-5 5-5s5 2.238 5 5v.15c0 2.762-2.238 5-5 5z"/></g><g><path d="m149.74 129.077c-.848 0-1.706-.216-2.493-.67l-.13-.075c-2.392-1.38-3.213-4.438-1.833-6.829 1.38-2.393 4.436-3.213 6.829-1.833l.13.075c2.392 1.38 3.213 4.438 1.833 6.829-.926 1.606-2.607 2.503-4.336 2.503z"/><path d="m173.801 142.969c-.85 0-1.711-.217-2.5-.674l-.13-.075c-2.39-1.384-3.206-4.442-1.822-6.832 1.383-2.391 4.44-3.208 6.833-1.822l.13.075c2.39 1.384 3.206 4.442 1.822 6.832-.927 1.601-2.607 2.496-4.333 2.496z"/></g><g><path d="m149.619 142.969c-1.729 0-3.41-.897-4.336-2.503-1.38-2.392-.559-5.449 1.833-6.829l.13-.075c2.392-1.383 5.45-.56 6.829 1.833 1.38 2.392.559 5.449-1.833 6.829l-.13.075c-.786.454-1.646.67-2.493.67z"/><path d="m173.681 129.077c-1.726 0-3.405-.895-4.332-2.496-1.384-2.39-.568-5.448 1.822-6.832l.13-.075c2.391-1.386 5.45-.568 6.833 1.822 1.384 2.39.568 5.448-1.822 6.832l-.13.075c-.789.457-1.651.674-2.501.674z"/></g></g></g></g></g></svg>